<svg xmlns="http://www.w3.org/2000/svg" viewBox="0 0 260 380">
  <g>
    <path fill="#eec00a" d="M0,26.27C2.44,12.27,13.26,1.52,27.65.44l145.09.03c14.61,1.45,26.06,12.96,27.16,27.67v123.19c-1.83,20.13-19.16,29.74-38.15,27.97-13.32,8.57-26.47,22.08-39.83,30.05-3.64,2.17-6.62,3-10.35.24-.91-.68-3.04-3.53-3.04-4.49v-26.08H26.06c-12.11,0-24.76-14.26-26.06-25.81V26.27ZM134.75,33.41c-12.98,1.42-21.71,12.91-21.62,25.69l-32.41,13.88c-1.59.16-2.39-1.61-3.71-2.51-12.1-8.28-28.76-5.79-35.85,7.5-11.95,22.37,13.02,45.6,34.88,31.68,1.5-.95,3.28-3.3,4.68-3.16l32.12,13.63c.83,3.14.76,6.4,1.75,9.54,5.68,18,30.6,22.38,41.99,7.36,16.35-21.55-8.64-49.71-32.1-35.35-1.5.92-3.91,3.73-5.33,3.59l-31.75-13.46c-1.3-.46-1.28-3.18-.37-3.94l32.12-13.63c1.42-.14,3.83,2.67,5.33,3.59,19.03,11.65,41.9-5.16,36.35-26.7-2.98-11.58-14.27-18.98-26.09-17.69Z" />
    <path fill="#a51a8f" d="M156.37,275.81l-43.01-31.98c-12.39.15-23.47-1.12-31.67-11.33-2.52-3.14-6.46-11.11-6.46-15.05v-22.32h17.19v11.02c0,14.9,22.02,26.86,34.92,18.81l39.79-29.55c21.21.5,40.79-12.02,46.87-32.68.59-1.99,2.01-6.96,2.01-8.75v-78.25h33.05c13.63,0,25.25,15.42,26.09,28.21,2.36,36.19-1.84,74.91,0,111.37.49,12.5-13.62,28.21-26.09,28.21h-82.48v26.08c0,2.43-3.99,5.16-5.91,6.18h-4.3Z" />
    <path fill="#eec00a" d="M135.8,49.52c10.66-2.19,13.6,13.82,3.52,15.89-10.66,2.19-13.6-13.82-3.52-15.89Z" />
    <path fill="#eec00a" d="M60.57,81.79c10.66-2.19,13.6,13.82,3.52,15.89-10.66,2.19-13.6-13.82-3.52-15.89Z" />
    <path fill="#eec00a" d="M135.8,114.06c10.66-2.19,13.6,13.82,3.52,15.89-10.66,2.19-13.6-13.82-3.52-15.89Z" />
  </g>
</svg>
